<?xml version="1.0" encoding="UTF-8" standalone="no"?>
<!-- Created with Inkscape (http://www.inkscape.org/) -->

<svg
   xmlns:dc="http://purl.org/dc/elements/1.1/"
   xmlns:cc="http://creativecommons.org/ns#"
   xmlns:rdf="http://www.w3.org/1999/02/22-rdf-syntax-ns#"
   xmlns:svg="http://www.w3.org/2000/svg"
   xmlns="http://www.w3.org/2000/svg"
   xmlns:xlink="http://www.w3.org/1999/xlink"
   xmlns:sodipodi="http://sodipodi.sourceforge.net/DTD/sodipodi-0.dtd"
   xmlns:inkscape="http://www.inkscape.org/namespaces/inkscape"
   sodipodi:docname="jeton_mocatie.svg"
   inkscape:version="0.48.2 r9819"
   version="1.1"
   id="svg2"
   height="297.03207"
   width="297.03207">
  <sodipodi:namedview
     id="base"
     pagecolor="#ffffff"
     bordercolor="#666666"
     borderopacity="1.0"
     inkscape:pageopacity="0.0"
     inkscape:pageshadow="2"
     inkscape:zoom="1.1204523"
     inkscape:cx="122.37602"
     inkscape:cy="69.534819"
     inkscape:document-units="px"
     inkscape:current-layer="layer2"
     showgrid="false"
     inkscape:window-width="1678"
     inkscape:window-height="1029"
     inkscape:window-x="0"
     inkscape:window-y="19"
     inkscape:window-maximized="0"
     showguides="true"
     inkscape:guide-bbox="true"
     fit-margin-top="0"
     fit-margin-left="0"
     fit-margin-right="0"
     fit-margin-bottom="0" />
  <defs
     id="defs4">
    <pattern
       patternTransform="translate(-25.099726,0)"
       id="pattern10695"
       xlink:href="#pattern10690"
       inkscape:collect="always" />
    <pattern
       patternTransform="translate(-310.06848,26.09375)"
       id="pattern10690"
       xlink:href="#pattern10685"
       inkscape:collect="always" />
    <pattern
       id="pattern10685"
       patternTransform="translate(-284.96875,26.09375)"
       height="177.90625"
       width="64.25"
       patternUnits="userSpaceOnUse">
      <path
         inkscape:connector-curvature="0"
         style="fill:#000000;fill-opacity:1;stroke:none"
         d="M 9.46875,0 0,5.25 0,12 21.65625,0 9.46875,0 z m 34,0 L 0,24.09375 0,30.875 55.65625,0 43.46875,0 z M 64.25,6.125 0,41.75 0,48.5 64.25,12.875 l 0,-6.75 z m 0,16.6875 L 0,58.4375 0,65.15625 64.25,29.5625 l 0,-6.75 z m 0,15.90625 L 0,74.3125 l 0,6.75 64.25,-35.625 0,-6.71875 z m 0,15.21875 -64.25,35.625 0,6.75 64.25,-35.625 0,-6.75 z m 0,14.71875 L 0,104.25 0,111 64.25,75.375 l 0,-6.71875 z m 0,14.1875 -64.25,35.625 0,6.75 64.25,-35.625 0,-6.75 z M 64.25,96.625 0,132.25 l 0,6.71875 64.25,-35.59375 0,-6.75 z m 0,13.40625 -64.25,35.625 0,6.71875 64.25,-35.59375 0,-6.75 z m 0,13.0625 -64.25,35.625 0,6.75 64.25,-35.625 0,-6.75 z m 0,12.75 -64.25,35.625 0,6.4375 0.5625,0 63.6875,-35.3125 0,-6.75 z m 0,12.46875 -53.34375,29.59375 12.1875,0 41.15625,-22.8125 0,-6.78125 z"
         id="path10551" />
    </pattern>
    <pattern
       id="pattern10692"
       patternTransform="translate(-284.96875,26.09375)"
       height="177.90625"
       width="64.25"
       patternUnits="userSpaceOnUse">
      <rect
         style="fill:url(#pattern10695);stroke:none"
         width="64.25"
         height="177.90625"
         x="0"
         y="0"
         id="rect10688" />
    </pattern>
  </defs>
  <metadata
     id="metadata7">
    <rdf:RDF>
      <cc:Work
         rdf:about="">
        <dc:format>image/svg+xml</dc:format>
        <dc:type
           rdf:resource="http://purl.org/dc/dcmitype/StillImage" />
        <dc:title />
      </cc:Work>
    </rdf:RDF>
  </metadata>
  <g
     transform="translate(-148.54585,-149.10167)"
     sodipodi:insensitive="true"
     style="display:inline"
     id="layer1"
     inkscape:groupmode="layer"
     inkscape:label="Ebene 1">
    <g
       id="g3992">
      <path
         d="m 445.57793,297.61771 c 0,82.02314 -66.4929,148.51603 -148.51604,148.51603 -82.02314,0 -148.51604,-66.49289 -148.51604,-148.51603 0,-82.02315 66.4929,-148.51604 148.51604,-148.51604 82.02314,0 148.51604,66.49289 148.51604,148.51604 z"
         sodipodi:ry="148.51604"
         sodipodi:rx="148.51604"
         sodipodi:cy="297.61771"
         sodipodi:cx="297.06189"
         id="color_back"
         style="fill:#cc00ff;fill-opacity:1;stroke:none"
         sodipodi:type="arc" />
      <path
         d="m 443.13234,297.61771 c 0,80.67248 -65.39797,146.07045 -146.07045,146.07045 -80.67248,0 -146.07045,-65.39797 -146.07045,-146.07045 0,-80.67249 65.39797,-146.07045 146.07045,-146.07045 80.67248,0 146.07045,65.39796 146.07045,146.07045 z"
         sodipodi:ry="146.07045"
         sodipodi:rx="146.07045"
         sodipodi:cy="297.61771"
         sodipodi:cx="297.06189"
         id="grey_bg"
         style="fill:#f2f2f2;fill-opacity:1;stroke:none"
         sodipodi:type="arc" />
      <g
         id="wedges"
         transform="translate(-60.438021,-207.2345)">
        <g
           transform="translate(-15.543937,60.448642)"
           id="g3081">
          <path
             inkscape:tile-y0="150.83185"
             inkscape:tile-x0="259.07092"
             transform="matrix(-0.38268343,-0.92387953,0.92387953,-0.38268343,211.7616,832.74633)"
             inkscape:transform-center-y="-73.392928"
             sodipodi:end="0.65449847"
             sodipodi:start="0.13089969"
             d="m 442.59197,316.7771 c -3.36317,25.54587 -13.3915,49.75639 -29.07703,70.19818 L 297.06189,297.61771 z"
             sodipodi:ry="146.78586"
             sodipodi:rx="146.78586"
             sodipodi:cy="297.61771"
             sodipodi:cx="297.06189"
             id="use3069"
             style="fill:#cc00ff;fill-opacity:1;stroke:none"
             sodipodi:type="arc" />
          <path
             inkscape:tile-y0="150.83185"
             inkscape:tile-x0="259.07092"
             transform="matrix(0.60876142,-0.79335334,0.79335334,0.60876142,-43.911975,498.90042)"
             inkscape:transform-center-y="-73.392928"
             sodipodi:end="0.65449847"
             sodipodi:start="0.13089969"
             d="m 442.59197,316.7771 c -3.36317,25.54587 -13.3915,49.75639 -29.07703,70.19818 L 297.06189,297.61771 z"
             sodipodi:ry="146.78586"
             sodipodi:rx="146.78586"
             sodipodi:cy="297.61771"
             sodipodi:cx="297.06189"
             id="use3071"
             style="fill:#cc00ff;fill-opacity:1;stroke:none"
             sodipodi:type="arc" />
          <path
             inkscape:tile-y0="150.83185"
             inkscape:tile-x0="259.07092"
             transform="matrix(0.99144485,0.13052619,-0.13052619,0.99144485,117.37027,110.55766)"
             inkscape:transform-center-y="-73.392928"
             sodipodi:end="0.65449847"
             sodipodi:start="0.13089969"
             d="m 442.59197,316.7771 c -3.36317,25.54587 -13.3915,49.75639 -29.07703,70.19818 L 297.06189,297.61771 z"
             sodipodi:ry="146.78586"
             sodipodi:rx="146.78586"
             sodipodi:cy="297.61771"
             sodipodi:cx="297.06189"
             id="use3073"
             style="fill:#cc00ff;fill-opacity:1;stroke:none"
             sodipodi:type="arc" />
          <path
             inkscape:tile-y0="150.83185"
             inkscape:tile-x0="259.07092"
             transform="matrix(0.38268343,0.92387953,-0.92387953,0.38268343,534.32609,56.0608)"
             inkscape:transform-center-y="-73.392928"
             sodipodi:end="0.65449847"
             sodipodi:start="0.13089969"
             d="m 442.59197,316.7771 c -3.36317,25.54587 -13.3915,49.75639 -29.07703,70.19818 L 297.06189,297.61771 z"
             sodipodi:ry="146.78586"
             sodipodi:rx="146.78586"
             sodipodi:cy="297.61771"
             sodipodi:cx="297.06189"
             id="use3075"
             style="fill:#cc00ff;fill-opacity:1;stroke:none"
             sodipodi:type="arc" />
          <path
             inkscape:tile-y0="150.83185"
             inkscape:tile-x0="259.07092"
             transform="matrix(-0.60876142,0.79335334,-0.79335334,-0.60876142,789.99967,389.9067)"
             inkscape:transform-center-y="-73.392928"
             sodipodi:end="0.65449847"
             sodipodi:start="0.13089969"
             d="m 442.59197,316.7771 c -3.36317,25.54587 -13.3915,49.75639 -29.07703,70.19818 L 297.06189,297.61771 z"
             sodipodi:ry="146.78586"
             sodipodi:rx="146.78586"
             sodipodi:cy="297.61771"
             sodipodi:cx="297.06189"
             id="use3077"
             style="fill:#cc00ff;fill-opacity:1;stroke:none"
             sodipodi:type="arc" />
          <path
             inkscape:tile-y0="150.83185"
             inkscape:tile-x0="259.07092"
             transform="matrix(-0.99144485,-0.13052619,0.13052619,-0.99144485,628.71742,778.24947)"
             inkscape:transform-center-y="-73.392928"
             sodipodi:end="0.65449847"
             sodipodi:start="0.13089969"
             d="m 442.59197,316.7771 c -3.36317,25.54587 -13.3915,49.75639 -29.07703,70.19818 L 297.06189,297.61771 z"
             sodipodi:ry="146.78586"
             sodipodi:rx="146.78586"
             sodipodi:cy="297.61771"
             sodipodi:cx="297.06189"
             id="use3079"
             style="fill:#cc00ff;fill-opacity:1;stroke:none"
             sodipodi:type="arc" />
        </g>
      </g>
      <path
         d="m 426.17561,297.61771 c 0,71.30754 -57.80618,129.11372 -129.11372,129.11372 -71.30754,0 -129.11372,-57.80618 -129.11372,-129.11372 0,-71.30754 57.80618,-129.11373 129.11372,-129.11373 71.30754,0 129.11372,57.80619 129.11372,129.11373 z"
         sodipodi:ry="129.11372"
         sodipodi:rx="129.11372"
         sodipodi:cy="297.61771"
         sodipodi:cx="297.06189"
         id="grey_outer"
         style="fill:#f2f2f2;fill-opacity:1;stroke:none"
         sodipodi:type="arc" />
      <path
         sodipodi:type="arc"
         style="fill:#cc00ff;fill-opacity:1;stroke:none"
         id="color_inner"
         sodipodi:cx="297.06189"
         sodipodi:cy="297.61771"
         sodipodi:rx="124.85734"
         sodipodi:ry="124.85734"
         d="m 421.91923,297.61771 c 0,68.9568 -55.90054,124.85733 -124.85734,124.85733 -68.9568,0 -124.85734,-55.90053 -124.85734,-124.85733 0,-68.95681 55.90054,-124.85734 124.85734,-124.85734 68.9568,0 124.85734,55.90053 124.85734,124.85734 z" />
      <path
         d="m 404.14233,297.61771 c 0,59.13889 -47.94155,107.08043 -107.08044,107.08043 -59.13889,0 -107.08044,-47.94154 -107.08044,-107.08043 0,-59.1389 47.94155,-107.08044 107.08044,-107.08044 59.13889,0 107.08044,47.94154 107.08044,107.08044 z"
         sodipodi:ry="107.08044"
         sodipodi:rx="107.08044"
         sodipodi:cy="297.61771"
         sodipodi:cx="297.06189"
         id="grey_inner"
         style="fill:#f2f2f2;fill-opacity:1;stroke:none"
         sodipodi:type="arc" />
      <path
         sodipodi:type="arc"
         style="fill:#cc00ff;fill-opacity:1;stroke:none"
         id="color_center"
         sodipodi:cx="297.06189"
         sodipodi:cy="297.61771"
         sodipodi:rx="102.10866"
         sodipodi:ry="102.10866"
         d="m 399.17055,297.61771 c 0,56.39305 -45.71561,102.10865 -102.10866,102.10865 -56.39305,0 -102.10866,-45.7156 -102.10866,-102.10865 0,-56.39306 45.71561,-102.10866 102.10866,-102.10866 56.39305,0 102.10866,45.7156 102.10866,102.10866 z" />
    </g>
  </g>
  <g
     transform="translate(-148.54585,-149.10167)"
     style="display:inline"
     inkscape:label="Aufdruck"
     id="layer2"
     inkscape:groupmode="layer">
    <path
       inkscape:connector-curvature="0"
       id="path3958"
       d="m 407.10866,297.61771 c 0,60.77715 -49.26962,110.04677 -110.04677,110.04677 -60.77715,0 -110.04677,-49.26962 -110.04677,-110.04677 0,-60.77716 49.26962,-110.04678 110.04677,-110.04678 60.77715,0 110.04677,49.26962 110.04677,110.04678 z"
       style="fill:none;stroke:none" />
    <text
       transform="matrix(0.99095976,0.13415945,-0.13415945,0.99095976,42.622049,-37.164862)"
       sodipodi:linespacing="125%"
       id="text4009"
       style="font-size:32px;font-style:normal;font-variant:normal;font-weight:normal;font-stretch:normal;line-height:125%;letter-spacing:0px;word-spacing:0px;fill:#ffffff;fill-opacity:1;stroke:none;font-family:Channel;-inkscape-font-specification:Channel"
       xml:space="preserve"><textPath
         id="textPath4043"
         xlink:href="#path3958"><tspan
   id="tspan4011"
   style="font-size:17px;font-style:normal;font-variant:normal;font-weight:normal;font-stretch:normal;fill:#ffffff;font-family:Nimbus Sans L;-inkscape-font-specification:Nimbus Sans L"><tspan
   style="font-size:17px;font-weight:bold;fill:#ffffff;-inkscape-font-specification:Nimbus Sans L Bold"
   id="tspan4013">Mo</tspan>nte <tspan
   style="font-size:17px;font-weight:bold;fill:#ffffff;-inkscape-font-specification:Nimbus Sans L Bold"
   id="tspan4015">Ca</tspan>rlo <tspan
   id="tspan3017"
   style="font-weight:bold;-inkscape-font-specification:Nimbus Sans L Bold">T</tspan>ake <tspan
   id="tspan3019"
   style="font-weight:bold;-inkscape-font-specification:Nimbus Sans L Bold">i</tspan>t <tspan
   id="tspan3021"
   style="font-weight:bold;-inkscape-font-specification:Nimbus Sans L Bold">E</tspan>asy   ♦   <tspan
   id="tspan4052"
   style="font-weight:bold;-inkscape-font-specification:Nimbus Sans L Bold">Mo</tspan>nte <tspan
   id="tspan4054"
   style="font-weight:bold;-inkscape-font-specification:Nimbus Sans L Bold">Ca</tspan>rlo <tspan
   id="tspan3023"
   style="font-weight:bold;-inkscape-font-specification:Nimbus Sans L Bold">T</tspan>ake <tspan
   id="tspan3025"
   style="font-weight:bold;-inkscape-font-specification:Nimbus Sans L Bold">i</tspan>t <tspan
   id="tspan3027"
   style="font-weight:bold;-inkscape-font-specification:Nimbus Sans L Bold">E</tspan>asy   ♦   <tspan
   id="tspan3029"
   style="font-weight:bold;-inkscape-font-specification:Nimbus Sans L Bold">Mo</tspan>nte <tspan
   id="tspan3031"
   style="font-weight:bold;-inkscape-font-specification:Nimbus Sans L Bold">Ca</tspan>rlo <tspan
   id="tspan3033"
   style="font-weight:bold;-inkscape-font-specification:Nimbus Sans L Bold">T</tspan>ake <tspan
   id="tspan3035"
   style="font-weight:bold;-inkscape-font-specification:Nimbus Sans L Bold">i</tspan>t <tspan
   id="tspan3037"
   style="font-weight:bold;-inkscape-font-specification:Nimbus Sans L Bold">E</tspan>asy   ♦</tspan></textPath></text>
    <path
       transform="translate(417.47528,241.37506)"
       d="m -44.901871,56.369995 -38.083698,65.962905 -76.167401,0 -38.08369,-65.962905 38.08369,-65.9629002 76.167401,0 z"
       inkscape:randomized="0"
       inkscape:rounded="0"
       inkscape:flatsided="true"
       sodipodi:arg2="0.52359878"
       sodipodi:arg1="0"
       sodipodi:r2="52.459602"
       sodipodi:r1="76.167393"
       sodipodi:cy="56.369995"
       sodipodi:cx="-121.06927"
       sodipodi:sides="6"
       id="path3077"
       style="fill:#ffffff;fill-opacity:1;stroke:#ffffff;stroke-width:4;stroke-linecap:butt;stroke-miterlimit:4;stroke-opacity:1;stroke-dasharray:none;stroke-dashoffset:0"
       sodipodi:type="star" />
    <text
       sodipodi:linespacing="125%"
       id="text3847"
       y="249.60834"
       x="298.073"
       style="font-size:32px;font-style:normal;font-variant:normal;font-weight:normal;font-stretch:normal;line-height:125%;letter-spacing:0px;word-spacing:0px;fill:#cc00ff;fill-opacity:1;stroke:none;font-family:Channel;-inkscape-font-specification:Channel"
       xml:space="preserve"><tspan
         style="font-size:22px;font-style:normal;font-variant:normal;font-weight:normal;font-stretch:normal;text-align:center;text-anchor:middle;font-family:Comic Sans MS;-inkscape-font-specification:Comic Sans MS"
         id="tspan3853"
         y="249.60834"
         x="298.073"
         sodipodi:role="line">159</tspan></text>
    <text
       transform="matrix(0.5,-0.8660254,0.8660254,0.5,0,0)"
       sodipodi:linespacing="125%"
       id="text3847-9"
       y="470.43671"
       x="-111.7809"
       style="font-size:32px;font-style:normal;font-variant:normal;font-weight:normal;font-stretch:normal;line-height:125%;letter-spacing:0px;word-spacing:0px;fill:#cc00ff;fill-opacity:1;stroke:none;display:inline;font-family:Channel;-inkscape-font-specification:Channel"
       xml:space="preserve"><tspan
         style="font-size:22px;font-style:normal;font-variant:normal;font-weight:normal;font-stretch:normal;text-align:center;text-anchor:middle;font-family:Comic Sans MS;-inkscape-font-specification:Comic Sans MS"
         id="tspan3853-7"
         y="470.43671"
         x="-111.7809"
         sodipodi:role="line">348</tspan></text>
    <text
       transform="matrix(0.5,0.8660254,-0.8660254,0.5,0,0)"
       sodipodi:linespacing="125%"
       id="text3847-1"
       y="-43.17918"
       x="409.30606"
       style="font-size:32px;font-style:normal;font-variant:normal;font-weight:normal;font-stretch:normal;line-height:125%;letter-spacing:0px;word-spacing:0px;fill:#cc00ff;fill-opacity:1;stroke:none;display:inline;font-family:Channel;-inkscape-font-specification:Channel"
       xml:space="preserve"><tspan
         style="font-size:22px;font-style:normal;font-variant:normal;font-weight:normal;font-stretch:normal;text-align:center;text-anchor:middle;font-family:Comic Sans MS;-inkscape-font-specification:Comic Sans MS"
         id="tspan3853-0"
         y="-43.17918"
         x="409.30606"
         sodipodi:role="line">267</tspan></text>
    <path
       style="fill:#cc00ff;fill-opacity:1;stroke:none"
       d="M 148.8125 112.34375 L 139.40625 117.03125 L 141.1875 121.4375 L 158.34375 112.875 L 158.5625 112.34375 L 148.8125 112.34375 z M 155.65625 119.90625 L 142 126.71875 L 141.59375 131.78125 L 154.21875 125.46875 L 154.125 123.96875 L 155.65625 119.90625 z M 154.40625 128.25 L 141.375 134.78125 L 141 139.46875 L 154.71875 132.65625 L 154.40625 128.25 z M 154.875 134.875 L 140.8125 141.90625 L 140.46875 146.34375 L 155.15625 139 L 154.875 134.875 z M 155.3125 141 L 140.28125 148.5 L 139.96875 152.6875 L 155.5625 144.90625 L 155.3125 141 z M 155.6875 146.78125 L 139.8125 154.71875 L 139.5 158.625 L 155.9375 150.4375 L 155.6875 146.78125 z M 156.09375 152.28125 L 139.34375 160.625 L 139.0625 164.34375 L 156.3125 155.71875 L 156.09375 152.28125 z M 156.4375 157.59375 L 138.875 166.34375 L 138.625 169.8125 L 156.65625 160.8125 L 156.4375 157.59375 z M 156.8125 162.71875 L 138.46875 171.875 L 138.1875 175.09375 L 157 165.71875 L 156.8125 162.71875 z M 157.15625 167.6875 L 138.03125 177.21875 L 137.8125 180.25 L 157.34375 170.5 L 157.15625 167.6875 z M 157.46875 172.5625 L 137.625 182.4375 L 137.40625 185.28125 L 157.65625 175.1875 L 157.46875 172.5625 z M 157.8125 177.3125 L 137.21875 187.5625 L 137.03125 190 L 137.125 190.125 L 157.96875 179.71875 L 157.8125 177.3125 z M 158.125 181.9375 L 138.3125 191.8125 L 139.5 193.5625 L 158.28125 184.1875 L 158.125 181.9375 z M 158.4375 186.5 L 140.75 195.3125 L 141.84375 196.90625 L 158.59375 188.5625 L 158.4375 186.5 z M 157.6875 191.53125 L 143.15625 198.78125 L 144.15625 200.21875 L 155.78125 194.40625 L 157.6875 191.53125 z M 153.25 198.3125 L 145.5 202.15625 L 146.40625 203.46875 L 151.53125 200.90625 L 153.25 198.3125 z "
       transform="translate(148.54585,149.10167)"
       id="path6494" />
    <path
       sodipodi:nodetypes="cccccccc"
       inkscape:connector-curvature="0"
       id="path3889"
       d="m 286.07218,261.4508 21.04805,0 -4.43784,11.62054 4.56463,66.01818 -10.52403,15.99929 -11.15799,-15.9993 5.19861,-66.01817 z"
       style="color:#cc00ff;fill:none;stroke:#cc00ff;stroke-width:1.74193978000000005;stroke-linecap:butt;stroke-linejoin:miter;stroke-miterlimit:4;stroke-opacity:1;stroke-dasharray:none;stroke-dashoffset:0;marker:none;visibility:visible;display:inline;overflow:visible;enable-background:accumulate;fill-opacity:1" />
  </g>
</svg>
